<svg xmlns="http://www.w3.org/2000/svg" viewBox="0 0 380.49 299.23"><defs><style>.cls-1{fill:#00d700;}.cls-2{fill:#fff;}</style></defs><title>Asset 3</title><g id="Layer_2" data-name="Layer 2"><g id="Layer_1-2" data-name="Layer 1"><path class="cls-1" d="M96.34,6.43,376.16,119.88v59.47L96.34,292.8v-56l205.24-83.21,9.9-4-9.9-4L96.34,62.39v-56M92,0V65.3l208,84.32L92,233.93v65.3l288.48-117V117L92,0Z"/><path class="cls-2" d="M0,160.42H25v29.12H48.21V160.42h25V239.3h-25V209H25V239.3H0Z"/><path class="cls-2" d="M87.59,160.42h56v19.2H112.53v11.14h24.71V208.3H112.53v11.8H145.4v19.2H87.59Z"/><path class="cls-2" d="M156,160.42h25V220.1h28.68v19.2H156Z"/><path class="cls-2" d="M220.2,160.42h25V220.1h28.69v19.2H220.2Z"/><path class="cls-2" d="M319.71,240.73a48.94,48.94,0,0,1-17.43-2.92,36.93,36.93,0,0,1-13.13-8.27,36,36,0,0,1-8.27-12.8A45.05,45.05,0,0,1,278,200.36v-.89a41,41,0,0,1,3.25-16.6,37.5,37.5,0,0,1,8.94-12.69,40.23,40.23,0,0,1,13.4-8.1,47,47,0,0,1,16.55-2.87,51,51,0,0,1,16.83,2.7,39.25,39.25,0,0,1,13.46,7.78,35.49,35.49,0,0,1,8.88,12.41,41.47,41.47,0,0,1,3.2,16.71v.89a44.86,44.86,0,0,1-3,16.82,36.13,36.13,0,0,1-8.66,12.91,39.82,39.82,0,0,1-13.51,8.33A49.65,49.65,0,0,1,319.71,240.73Zm.66-19.63a14.24,14.24,0,0,0,11.75-5.46q4.36-5.46,4.36-15.39v-.89q0-10-4.41-15.33a14.72,14.72,0,0,0-11.92-5.3A14.39,14.39,0,0,0,308.51,184q-4.35,5.25-4.35,15.39v.89q0,10.14,4.35,15.5A14.51,14.51,0,0,0,320.37,221.1Z"/></g></g></svg>